<mxfile host="app.diagrams.net" modified="2023-07-20T02:29:46.112Z" agent="Mozilla/5.0 (Windows NT 10.0; Win64; x64) AppleWebKit/537.36 (KHTML, like Gecko) Chrome/114.0.0.0 Safari/537.36" version="21.5.1" etag="POYZ1pDFGpusdwMx_x_p" type="github">
  <diagram name="Page-1" id="FtoCT6VT-vuWgB3kUutf">
    <mxGraphModel>
      <root>
        <mxCell id="0" />
        <mxCell id="1" parent="0" />
      </root>
    </mxGraphModel>
  </diagram>
</mxfile>
